<mxfile host="app.diagrams.net" modified="2023-08-05T09:50:05.076Z" agent="Mozilla/5.0 (Windows NT 10.0; Win64; x64) AppleWebKit/537.36 (KHTML, like Gecko) Chrome/115.0.0.0 Safari/537.36" etag="o28B6HgSKi60yYDE8dy8" version="21.6.6" type="device" pages="4">
  <diagram id="j5HSrSOfymB-mUj1QBlj" name="User Story">
    <mxGraphModel dx="1050" dy="574" grid="1" gridSize="10" guides="1" tooltips="1" connect="1" arrows="1" fold="1" page="1" pageScale="1" pageWidth="850" pageHeight="1100" math="0" shadow="0">
      <root>
        <mxCell id="0" />
        <mxCell id="1" parent="0" />
      </root>
    </mxGraphModel>
  </diagram>
  <diagram id="9XPeg0jUrptzR0GKKfYK" name="Architecture">
    <mxGraphModel dx="3475" dy="1435" grid="1" gridSize="10" guides="1" tooltips="1" connect="1" arrows="1" fold="1" page="1" pageScale="1" pageWidth="850" pageHeight="1100" math="0" shadow="0">
      <root>
        <mxCell id="0" />
        <mxCell id="1" parent="0" />
        <mxCell id="xqngMxx6QCLVOEoHXJQ6-2" value="&lt;font style=&quot;font-size: 14px;&quot;&gt;React App&lt;/font&gt;" style="rounded=1;whiteSpace=wrap;html=1;" parent="1" vertex="1">
          <mxGeometry x="-610" y="907" width="106" height="59" as="geometry" />
        </mxCell>
        <mxCell id="xqngMxx6QCLVOEoHXJQ6-11" value="&lt;font style=&quot;font-size: 14px;&quot;&gt;Nginx Proxy&lt;/font&gt;" style="rounded=1;whiteSpace=wrap;html=1;" parent="1" vertex="1">
          <mxGeometry x="-422" y="874" width="134" height="73" as="geometry" />
        </mxCell>
        <mxCell id="xqngMxx6QCLVOEoHXJQ6-21" value="&lt;font style=&quot;font-size: 14px;&quot;&gt;Auth Api&lt;/font&gt;" style="rounded=0;whiteSpace=wrap;html=1;" parent="1" vertex="1">
          <mxGeometry x="192" y="352.5" width="120" height="60" as="geometry" />
        </mxCell>
        <mxCell id="xqngMxx6QCLVOEoHXJQ6-22" value="&lt;font style=&quot;font-size: 14px;&quot;&gt;PostgreSQL&lt;/font&gt;" style="shape=cylinder3;whiteSpace=wrap;html=1;boundedLbl=1;backgroundOutline=1;size=15;" parent="1" vertex="1">
          <mxGeometry x="375" y="327" width="90" height="111" as="geometry" />
        </mxCell>
        <mxCell id="xqngMxx6QCLVOEoHXJQ6-23" value="&lt;font style=&quot;font-size: 14px;&quot;&gt;Auth Service&lt;/font&gt;" style="text;html=1;align=center;verticalAlign=middle;resizable=0;points=[];autosize=1;strokeColor=none;fillColor=none;" parent="1" vertex="1">
          <mxGeometry x="280" y="296" width="100" height="30" as="geometry" />
        </mxCell>
        <mxCell id="xqngMxx6QCLVOEoHXJQ6-29" value="&lt;font style=&quot;font-size: 14px;&quot;&gt;Expiration Api&lt;/font&gt;" style="rounded=0;whiteSpace=wrap;html=1;" parent="1" vertex="1">
          <mxGeometry x="192" y="552.5" width="120" height="60" as="geometry" />
        </mxCell>
        <mxCell id="xqngMxx6QCLVOEoHXJQ6-30" value="&lt;font style=&quot;font-size: 14px;&quot;&gt;Redis&lt;/font&gt;" style="shape=cylinder3;whiteSpace=wrap;html=1;boundedLbl=1;backgroundOutline=1;size=15;" parent="1" vertex="1">
          <mxGeometry x="375" y="527" width="90" height="111" as="geometry" />
        </mxCell>
        <mxCell id="xqngMxx6QCLVOEoHXJQ6-31" value="&lt;font style=&quot;font-size: 14px;&quot;&gt;Expiation Service&lt;/font&gt;" style="text;html=1;align=center;verticalAlign=middle;resizable=0;points=[];autosize=1;strokeColor=none;fillColor=none;" parent="1" vertex="1">
          <mxGeometry x="265" y="496" width="130" height="30" as="geometry" />
        </mxCell>
        <mxCell id="xqngMxx6QCLVOEoHXJQ6-33" value="&lt;font style=&quot;font-size: 14px;&quot;&gt;Ticket Api&lt;/font&gt;" style="rounded=0;whiteSpace=wrap;html=1;" parent="1" vertex="1">
          <mxGeometry x="192" y="782.5" width="120" height="60" as="geometry" />
        </mxCell>
        <mxCell id="xqngMxx6QCLVOEoHXJQ6-34" value="&lt;font style=&quot;font-size: 14px;&quot;&gt;PostgreSQL&lt;/font&gt;" style="shape=cylinder3;whiteSpace=wrap;html=1;boundedLbl=1;backgroundOutline=1;size=15;" parent="1" vertex="1">
          <mxGeometry x="375" y="757" width="90" height="111" as="geometry" />
        </mxCell>
        <mxCell id="xqngMxx6QCLVOEoHXJQ6-35" value="&lt;font style=&quot;font-size: 14px;&quot;&gt;Ticket Service&lt;/font&gt;" style="text;html=1;align=center;verticalAlign=middle;resizable=0;points=[];autosize=1;strokeColor=none;fillColor=none;" parent="1" vertex="1">
          <mxGeometry x="275" y="726" width="110" height="30" as="geometry" />
        </mxCell>
        <mxCell id="xqngMxx6QCLVOEoHXJQ6-37" value="&lt;font style=&quot;font-size: 14px;&quot;&gt;Order Api&lt;/font&gt;" style="rounded=0;whiteSpace=wrap;html=1;" parent="1" vertex="1">
          <mxGeometry x="192" y="992.5" width="120" height="60" as="geometry" />
        </mxCell>
        <mxCell id="xqngMxx6QCLVOEoHXJQ6-38" value="&lt;font style=&quot;font-size: 14px;&quot;&gt;PostgreSQL&lt;/font&gt;" style="shape=cylinder3;whiteSpace=wrap;html=1;boundedLbl=1;backgroundOutline=1;size=15;" parent="1" vertex="1">
          <mxGeometry x="375" y="967" width="90" height="111" as="geometry" />
        </mxCell>
        <mxCell id="xqngMxx6QCLVOEoHXJQ6-39" value="&lt;font style=&quot;font-size: 14px;&quot;&gt;Order Service&lt;/font&gt;" style="text;html=1;align=center;verticalAlign=middle;resizable=0;points=[];autosize=1;strokeColor=none;fillColor=none;" parent="1" vertex="1">
          <mxGeometry x="275" y="936" width="110" height="30" as="geometry" />
        </mxCell>
        <mxCell id="xqngMxx6QCLVOEoHXJQ6-41" value="&lt;font style=&quot;font-size: 14px;&quot;&gt;Payment Api&lt;/font&gt;" style="rounded=0;whiteSpace=wrap;html=1;" parent="1" vertex="1">
          <mxGeometry x="192" y="1202.5" width="120" height="60" as="geometry" />
        </mxCell>
        <mxCell id="xqngMxx6QCLVOEoHXJQ6-42" value="&lt;font style=&quot;font-size: 14px;&quot;&gt;PostgreSQL&lt;/font&gt;" style="shape=cylinder3;whiteSpace=wrap;html=1;boundedLbl=1;backgroundOutline=1;size=15;" parent="1" vertex="1">
          <mxGeometry x="375" y="1177" width="90" height="111" as="geometry" />
        </mxCell>
        <mxCell id="xqngMxx6QCLVOEoHXJQ6-43" value="&lt;font style=&quot;font-size: 14px;&quot;&gt;Payment Service&lt;/font&gt;" style="text;html=1;align=center;verticalAlign=middle;resizable=0;points=[];autosize=1;strokeColor=none;fillColor=none;" parent="1" vertex="1">
          <mxGeometry x="265" y="1146" width="130" height="30" as="geometry" />
        </mxCell>
        <mxCell id="xqngMxx6QCLVOEoHXJQ6-45" value="&lt;font style=&quot;font-size: 14px;&quot;&gt;NATS Streaming Server&lt;/font&gt;" style="rounded=1;whiteSpace=wrap;html=1;" parent="1" vertex="1">
          <mxGeometry x="-163" y="890" width="171" height="52" as="geometry" />
        </mxCell>
        <mxCell id="xqngMxx6QCLVOEoHXJQ6-46" value="&lt;font style=&quot;font-size: 14px;&quot;&gt;Stripe&lt;/font&gt;" style="rounded=1;whiteSpace=wrap;html=1;" parent="1" vertex="1">
          <mxGeometry x="-337" y="1087.5" width="89" height="47" as="geometry" />
        </mxCell>
        <mxCell id="xqngMxx6QCLVOEoHXJQ6-48" value="" style="endArrow=classic;html=1;rounded=0;exitX=0.628;exitY=0.996;exitDx=0;exitDy=0;entryX=0;entryY=0.5;entryDx=0;entryDy=0;exitPerimeter=0;" parent="1" source="xqngMxx6QCLVOEoHXJQ6-2" target="xqngMxx6QCLVOEoHXJQ6-46" edge="1">
          <mxGeometry width="50" height="50" relative="1" as="geometry">
            <mxPoint x="-524.7730000000001" y="962.7779999999998" as="sourcePoint" />
            <mxPoint x="-27" y="777" as="targetPoint" />
          </mxGeometry>
        </mxCell>
        <mxCell id="xqngMxx6QCLVOEoHXJQ6-50" value="HTTP" style="edgeLabel;html=1;align=center;verticalAlign=middle;resizable=0;points=[];" parent="xqngMxx6QCLVOEoHXJQ6-48" vertex="1" connectable="0">
          <mxGeometry x="-0.0966" relative="1" as="geometry">
            <mxPoint as="offset" />
          </mxGeometry>
        </mxCell>
        <mxCell id="xqngMxx6QCLVOEoHXJQ6-49" value="" style="endArrow=classic;startArrow=classic;html=1;rounded=0;exitX=1;exitY=0.5;exitDx=0;exitDy=0;entryX=0.008;entryY=0.687;entryDx=0;entryDy=0;entryPerimeter=0;" parent="1" source="xqngMxx6QCLVOEoHXJQ6-46" target="xqngMxx6QCLVOEoHXJQ6-87" edge="1">
          <mxGeometry width="50" height="50" relative="1" as="geometry">
            <mxPoint x="150" y="1190" as="sourcePoint" />
            <mxPoint x="174.69000000000005" y="1205.3825" as="targetPoint" />
          </mxGeometry>
        </mxCell>
        <mxCell id="xqngMxx6QCLVOEoHXJQ6-51" value="&lt;font style=&quot;font-size: 12px;&quot;&gt;HTTP&lt;/font&gt;" style="edgeLabel;html=1;align=center;verticalAlign=middle;resizable=0;points=[];" parent="xqngMxx6QCLVOEoHXJQ6-49" vertex="1" connectable="0">
          <mxGeometry x="-0.0331" y="-1" relative="1" as="geometry">
            <mxPoint as="offset" />
          </mxGeometry>
        </mxCell>
        <mxCell id="xqngMxx6QCLVOEoHXJQ6-64" value="" style="endArrow=classic;html=1;rounded=0;exitX=0.589;exitY=1.007;exitDx=0;exitDy=0;exitPerimeter=0;entryX=-0.007;entryY=0.32;entryDx=0;entryDy=0;entryPerimeter=0;" parent="1" source="xqngMxx6QCLVOEoHXJQ6-11" target="xqngMxx6QCLVOEoHXJQ6-87" edge="1">
          <mxGeometry width="50" height="50" relative="1" as="geometry">
            <mxPoint x="150" y="1190" as="sourcePoint" />
            <mxPoint x="178.0999999999999" y="1159.8425" as="targetPoint" />
          </mxGeometry>
        </mxCell>
        <mxCell id="xqngMxx6QCLVOEoHXJQ6-65" value="HTTP" style="edgeLabel;html=1;align=center;verticalAlign=middle;resizable=0;points=[];" parent="xqngMxx6QCLVOEoHXJQ6-64" vertex="1" connectable="0">
          <mxGeometry x="-0.0155" y="3" relative="1" as="geometry">
            <mxPoint as="offset" />
          </mxGeometry>
        </mxCell>
        <mxCell id="xqngMxx6QCLVOEoHXJQ6-66" value="" style="endArrow=classic;startArrow=classic;html=1;rounded=0;exitX=0.8;exitY=1.01;exitDx=0;exitDy=0;exitPerimeter=0;entryX=0;entryY=0;entryDx=0;entryDy=0;dashed=1;" parent="1" source="xqngMxx6QCLVOEoHXJQ6-45" edge="1">
          <mxGeometry width="50" height="50" relative="1" as="geometry">
            <mxPoint x="150" y="930" as="sourcePoint" />
            <mxPoint x="175" y="1130" as="targetPoint" />
          </mxGeometry>
        </mxCell>
        <mxCell id="xqngMxx6QCLVOEoHXJQ6-71" value="HTTP" style="edgeLabel;html=1;align=center;verticalAlign=middle;resizable=0;points=[];" parent="xqngMxx6QCLVOEoHXJQ6-66" vertex="1" connectable="0">
          <mxGeometry x="0.3701" y="4" relative="1" as="geometry">
            <mxPoint as="offset" />
          </mxGeometry>
        </mxCell>
        <mxCell id="xqngMxx6QCLVOEoHXJQ6-67" value="" style="endArrow=classic;html=1;rounded=0;exitX=1;exitY=0.75;exitDx=0;exitDy=0;entryX=-0.016;entryY=0.602;entryDx=0;entryDy=0;entryPerimeter=0;" parent="1" source="xqngMxx6QCLVOEoHXJQ6-11" edge="1">
          <mxGeometry width="50" height="50" relative="1" as="geometry">
            <mxPoint x="150" y="1190" as="sourcePoint" />
            <mxPoint x="170.03999999999996" y="1021.095" as="targetPoint" />
          </mxGeometry>
        </mxCell>
        <mxCell id="xqngMxx6QCLVOEoHXJQ6-68" value="HTTP" style="edgeLabel;html=1;align=center;verticalAlign=middle;resizable=0;points=[];" parent="xqngMxx6QCLVOEoHXJQ6-67" vertex="1" connectable="0">
          <mxGeometry x="-0.2911" y="-3" relative="1" as="geometry">
            <mxPoint as="offset" />
          </mxGeometry>
        </mxCell>
        <mxCell id="xqngMxx6QCLVOEoHXJQ6-69" value="" style="endArrow=classic;html=1;rounded=0;entryX=0;entryY=0.5;entryDx=0;entryDy=0;exitX=0.75;exitY=0;exitDx=0;exitDy=0;" parent="1" source="xqngMxx6QCLVOEoHXJQ6-11" edge="1">
          <mxGeometry width="50" height="50" relative="1" as="geometry">
            <mxPoint x="-160" y="965" as="sourcePoint" />
            <mxPoint x="176" y="796.25" as="targetPoint" />
            <Array as="points">
              <mxPoint x="-160" y="800" />
            </Array>
          </mxGeometry>
        </mxCell>
        <mxCell id="xqngMxx6QCLVOEoHXJQ6-70" value="HTTP" style="edgeLabel;html=1;align=center;verticalAlign=middle;resizable=0;points=[];" parent="xqngMxx6QCLVOEoHXJQ6-69" vertex="1" connectable="0">
          <mxGeometry x="0.2615" y="-2" relative="1" as="geometry">
            <mxPoint x="-50" y="-4" as="offset" />
          </mxGeometry>
        </mxCell>
        <mxCell id="xqngMxx6QCLVOEoHXJQ6-72" value="" style="endArrow=classic;html=1;rounded=0;exitX=0.89;exitY=0;exitDx=0;exitDy=0;exitPerimeter=0;entryX=0.002;entryY=0.683;entryDx=0;entryDy=0;entryPerimeter=0;" parent="1" source="xqngMxx6QCLVOEoHXJQ6-11" edge="1">
          <mxGeometry width="50" height="50" relative="1" as="geometry">
            <mxPoint x="150" y="930" as="sourcePoint" />
            <mxPoint x="175.6199999999999" y="827.8175000000001" as="targetPoint" />
          </mxGeometry>
        </mxCell>
        <mxCell id="xqngMxx6QCLVOEoHXJQ6-73" value="" style="endArrow=classic;html=1;rounded=0;entryX=0.005;entryY=0.618;entryDx=0;entryDy=0;entryPerimeter=0;" parent="1" source="xqngMxx6QCLVOEoHXJQ6-11" target="xqngMxx6QCLVOEoHXJQ6-95" edge="1">
          <mxGeometry width="50" height="50" relative="1" as="geometry">
            <mxPoint x="-230" y="920" as="sourcePoint" />
            <mxPoint x="153" y="389.375" as="targetPoint" />
            <Array as="points">
              <mxPoint x="-232" y="390" />
            </Array>
          </mxGeometry>
        </mxCell>
        <mxCell id="xqngMxx6QCLVOEoHXJQ6-75" value="HTTP" style="edgeLabel;html=1;align=center;verticalAlign=middle;resizable=0;points=[];" parent="xqngMxx6QCLVOEoHXJQ6-73" vertex="1" connectable="0">
          <mxGeometry x="0.5153" y="3" relative="1" as="geometry">
            <mxPoint as="offset" />
          </mxGeometry>
        </mxCell>
        <mxCell id="xqngMxx6QCLVOEoHXJQ6-76" value="" style="endArrow=classic;startArrow=classic;html=1;rounded=0;exitX=0.25;exitY=0;exitDx=0;exitDy=0;entryX=0.01;entryY=0.906;entryDx=0;entryDy=0;entryPerimeter=0;dashed=1;" parent="1" source="xqngMxx6QCLVOEoHXJQ6-45" edge="1">
          <mxGeometry width="50" height="50" relative="1" as="geometry">
            <mxPoint x="150" y="930" as="sourcePoint" />
            <mxPoint x="178.0999999999999" y="646.2850000000001" as="targetPoint" />
          </mxGeometry>
        </mxCell>
        <mxCell id="xqngMxx6QCLVOEoHXJQ6-78" value="HTTP" style="edgeLabel;html=1;align=center;verticalAlign=middle;resizable=0;points=[];" parent="xqngMxx6QCLVOEoHXJQ6-76" vertex="1" connectable="0">
          <mxGeometry x="0.3739" relative="1" as="geometry">
            <mxPoint as="offset" />
          </mxGeometry>
        </mxCell>
        <mxCell id="xqngMxx6QCLVOEoHXJQ6-77" value="" style="endArrow=classic;startArrow=classic;html=1;rounded=0;exitX=1;exitY=0;exitDx=0;exitDy=0;entryX=-0.016;entryY=0.893;entryDx=0;entryDy=0;entryPerimeter=0;dashed=1;" parent="1" source="xqngMxx6QCLVOEoHXJQ6-45" target="xqngMxx6QCLVOEoHXJQ6-91" edge="1">
          <mxGeometry width="50" height="50" relative="1" as="geometry">
            <mxPoint x="91" y="945" as="sourcePoint" />
            <mxPoint x="185.23000000000002" y="886.9850000000001" as="targetPoint" />
          </mxGeometry>
        </mxCell>
        <mxCell id="xqngMxx6QCLVOEoHXJQ6-79" value="HTTP" style="edgeLabel;html=1;align=center;verticalAlign=middle;resizable=0;points=[];" parent="xqngMxx6QCLVOEoHXJQ6-77" vertex="1" connectable="0">
          <mxGeometry x="0.4356" y="-3" relative="1" as="geometry">
            <mxPoint as="offset" />
          </mxGeometry>
        </mxCell>
        <mxCell id="xqngMxx6QCLVOEoHXJQ6-80" value="" style="endArrow=classic;html=1;rounded=0;exitX=1;exitY=0.25;exitDx=0;exitDy=0;entryX=0;entryY=0.5;entryDx=0;entryDy=0;" parent="1" source="xqngMxx6QCLVOEoHXJQ6-2" target="xqngMxx6QCLVOEoHXJQ6-11" edge="1">
          <mxGeometry width="50" height="50" relative="1" as="geometry">
            <mxPoint x="-493" y="928.7499999999998" as="sourcePoint" />
            <mxPoint x="18" y="787" as="targetPoint" />
          </mxGeometry>
        </mxCell>
        <mxCell id="xqngMxx6QCLVOEoHXJQ6-81" value="" style="endArrow=classic;startArrow=classic;html=1;rounded=0;exitX=1;exitY=0.5;exitDx=0;exitDy=0;entryX=0;entryY=0.5;entryDx=0;entryDy=0;dashed=1;" parent="1" source="xqngMxx6QCLVOEoHXJQ6-45" edge="1">
          <mxGeometry width="50" height="50" relative="1" as="geometry">
            <mxPoint x="150" y="1190" as="sourcePoint" />
            <mxPoint x="175" y="1003.5" as="targetPoint" />
          </mxGeometry>
        </mxCell>
        <mxCell id="xqngMxx6QCLVOEoHXJQ6-82" value="HTTP" style="edgeLabel;html=1;align=center;verticalAlign=middle;resizable=0;points=[];" parent="xqngMxx6QCLVOEoHXJQ6-81" vertex="1" connectable="0">
          <mxGeometry x="-0.1748" y="4" relative="1" as="geometry">
            <mxPoint as="offset" />
          </mxGeometry>
        </mxCell>
        <mxCell id="xqngMxx6QCLVOEoHXJQ6-86" value="" style="endArrow=classic;html=1;rounded=0;exitX=1;exitY=0.5;exitDx=0;exitDy=0;entryX=0;entryY=0.5;entryDx=0;entryDy=0;entryPerimeter=0;" parent="1" source="xqngMxx6QCLVOEoHXJQ6-41" target="xqngMxx6QCLVOEoHXJQ6-42" edge="1">
          <mxGeometry width="50" height="50" relative="1" as="geometry">
            <mxPoint x="150" y="1190" as="sourcePoint" />
            <mxPoint x="200" y="1140" as="targetPoint" />
          </mxGeometry>
        </mxCell>
        <mxCell id="xqngMxx6QCLVOEoHXJQ6-87" value="" style="rounded=0;whiteSpace=wrap;html=1;fillStyle=cross-hatch;gradientColor=none;" parent="1" vertex="1">
          <mxGeometry x="175" y="1130" width="310" height="172.5" as="geometry" />
        </mxCell>
        <mxCell id="xqngMxx6QCLVOEoHXJQ6-88" value="" style="endArrow=classic;html=1;rounded=0;exitX=0.997;exitY=0.375;exitDx=0;exitDy=0;exitPerimeter=0;entryX=-0.02;entryY=0.432;entryDx=0;entryDy=0;entryPerimeter=0;" parent="1" source="xqngMxx6QCLVOEoHXJQ6-37" target="xqngMxx6QCLVOEoHXJQ6-38" edge="1">
          <mxGeometry width="50" height="50" relative="1" as="geometry">
            <mxPoint x="150" y="930" as="sourcePoint" />
            <mxPoint x="200" y="880" as="targetPoint" />
          </mxGeometry>
        </mxCell>
        <mxCell id="xqngMxx6QCLVOEoHXJQ6-89" value="" style="rounded=0;whiteSpace=wrap;html=1;fillStyle=cross-hatch;gradientColor=none;" parent="1" vertex="1">
          <mxGeometry x="175" y="917.25" width="310" height="172.5" as="geometry" />
        </mxCell>
        <mxCell id="xqngMxx6QCLVOEoHXJQ6-90" value="" style="endArrow=classic;html=1;rounded=0;entryX=0;entryY=0.5;entryDx=0;entryDy=0;entryPerimeter=0;exitX=1;exitY=0.5;exitDx=0;exitDy=0;" parent="1" source="xqngMxx6QCLVOEoHXJQ6-33" target="xqngMxx6QCLVOEoHXJQ6-34" edge="1">
          <mxGeometry width="50" height="50" relative="1" as="geometry">
            <mxPoint x="150" y="930" as="sourcePoint" />
            <mxPoint x="200" y="880" as="targetPoint" />
          </mxGeometry>
        </mxCell>
        <mxCell id="xqngMxx6QCLVOEoHXJQ6-91" value="" style="rounded=0;whiteSpace=wrap;html=1;fillStyle=cross-hatch;gradientColor=none;" parent="1" vertex="1">
          <mxGeometry x="175" y="710" width="310" height="172.5" as="geometry" />
        </mxCell>
        <mxCell id="xqngMxx6QCLVOEoHXJQ6-92" value="" style="endArrow=classic;startArrow=classic;html=1;rounded=0;entryX=0.016;entryY=0.577;entryDx=0;entryDy=0;entryPerimeter=0;exitX=0.997;exitY=0.628;exitDx=0;exitDy=0;exitPerimeter=0;" parent="1" source="xqngMxx6QCLVOEoHXJQ6-29" target="xqngMxx6QCLVOEoHXJQ6-30" edge="1">
          <mxGeometry width="50" height="50" relative="1" as="geometry">
            <mxPoint x="150" y="660" as="sourcePoint" />
            <mxPoint x="200" y="610" as="targetPoint" />
          </mxGeometry>
        </mxCell>
        <mxCell id="xqngMxx6QCLVOEoHXJQ6-93" value="" style="rounded=0;whiteSpace=wrap;html=1;fillStyle=cross-hatch;gradientColor=none;" parent="1" vertex="1">
          <mxGeometry x="175" y="490" width="310" height="172.5" as="geometry" />
        </mxCell>
        <mxCell id="xqngMxx6QCLVOEoHXJQ6-94" value="" style="endArrow=classic;html=1;rounded=0;exitX=1;exitY=0.5;exitDx=0;exitDy=0;" parent="1" source="xqngMxx6QCLVOEoHXJQ6-21" target="xqngMxx6QCLVOEoHXJQ6-22" edge="1">
          <mxGeometry width="50" height="50" relative="1" as="geometry">
            <mxPoint x="150" y="390" as="sourcePoint" />
            <mxPoint x="200" y="340" as="targetPoint" />
          </mxGeometry>
        </mxCell>
        <mxCell id="xqngMxx6QCLVOEoHXJQ6-95" value="" style="rounded=0;whiteSpace=wrap;html=1;fillStyle=cross-hatch;gradientColor=none;" parent="1" vertex="1">
          <mxGeometry x="175" y="280" width="310" height="172.5" as="geometry" />
        </mxCell>
      </root>
    </mxGraphModel>
  </diagram>
  <diagram id="C5RBs43oDa-KdzZeNtuy" name="Models">
    <mxGraphModel dx="1050" dy="581" grid="1" gridSize="10" guides="1" tooltips="1" connect="1" arrows="1" fold="1" page="1" pageScale="1" pageWidth="827" pageHeight="1169" math="0" shadow="0">
      <root>
        <mxCell id="WIyWlLk6GJQsqaUBKTNV-0" />
        <mxCell id="WIyWlLk6GJQsqaUBKTNV-1" parent="WIyWlLk6GJQsqaUBKTNV-0" />
        <mxCell id="zkfFHV4jXpPFQw0GAbJ--0" value="User" style="swimlane;fontStyle=0;align=center;verticalAlign=top;childLayout=stackLayout;horizontal=1;startSize=26;horizontalStack=0;resizeParent=1;resizeLast=0;collapsible=1;marginBottom=0;rounded=0;shadow=0;strokeWidth=1;" parent="WIyWlLk6GJQsqaUBKTNV-1" vertex="1">
          <mxGeometry x="94" y="183" width="160" height="138" as="geometry">
            <mxRectangle x="230" y="140" width="160" height="26" as="alternateBounds" />
          </mxGeometry>
        </mxCell>
        <mxCell id="zkfFHV4jXpPFQw0GAbJ--1" value="id" style="text;align=left;verticalAlign=top;spacingLeft=4;spacingRight=4;overflow=hidden;rotatable=0;points=[[0,0.5],[1,0.5]];portConstraint=eastwest;" parent="zkfFHV4jXpPFQw0GAbJ--0" vertex="1">
          <mxGeometry y="26" width="160" height="26" as="geometry" />
        </mxCell>
        <mxCell id="zkfFHV4jXpPFQw0GAbJ--3" value="password" style="text;align=left;verticalAlign=top;spacingLeft=4;spacingRight=4;overflow=hidden;rotatable=0;points=[[0,0.5],[1,0.5]];portConstraint=eastwest;rounded=0;shadow=0;html=0;" parent="zkfFHV4jXpPFQw0GAbJ--0" vertex="1">
          <mxGeometry y="52" width="160" height="26" as="geometry" />
        </mxCell>
        <mxCell id="zkfFHV4jXpPFQw0GAbJ--2" value="email" style="text;align=left;verticalAlign=top;spacingLeft=4;spacingRight=4;overflow=hidden;rotatable=0;points=[[0,0.5],[1,0.5]];portConstraint=eastwest;rounded=0;shadow=0;html=0;" parent="zkfFHV4jXpPFQw0GAbJ--0" vertex="1">
          <mxGeometry y="78" width="160" height="26" as="geometry" />
        </mxCell>
        <mxCell id="zkfFHV4jXpPFQw0GAbJ--4" value="" style="line;html=1;strokeWidth=1;align=left;verticalAlign=middle;spacingTop=-1;spacingLeft=3;spacingRight=3;rotatable=0;labelPosition=right;points=[];portConstraint=eastwest;" parent="zkfFHV4jXpPFQw0GAbJ--0" vertex="1">
          <mxGeometry y="104" width="160" height="8" as="geometry" />
        </mxCell>
        <mxCell id="zkfFHV4jXpPFQw0GAbJ--6" value="Payment" style="swimlane;fontStyle=0;align=center;verticalAlign=top;childLayout=stackLayout;horizontal=1;startSize=26;horizontalStack=0;resizeParent=1;resizeLast=0;collapsible=1;marginBottom=0;rounded=0;shadow=0;strokeWidth=1;" parent="WIyWlLk6GJQsqaUBKTNV-1" vertex="1">
          <mxGeometry x="339" y="380" width="180" height="160" as="geometry">
            <mxRectangle x="130" y="380" width="160" height="26" as="alternateBounds" />
          </mxGeometry>
        </mxCell>
        <mxCell id="zkfFHV4jXpPFQw0GAbJ--7" value="id" style="text;align=left;verticalAlign=top;spacingLeft=4;spacingRight=4;overflow=hidden;rotatable=0;points=[[0,0.5],[1,0.5]];portConstraint=eastwest;" parent="zkfFHV4jXpPFQw0GAbJ--6" vertex="1">
          <mxGeometry y="26" width="180" height="26" as="geometry" />
        </mxCell>
        <mxCell id="zkfFHV4jXpPFQw0GAbJ--8" value="orderId" style="text;align=left;verticalAlign=top;spacingLeft=4;spacingRight=4;overflow=hidden;rotatable=0;points=[[0,0.5],[1,0.5]];portConstraint=eastwest;rounded=0;shadow=0;html=0;" parent="zkfFHV4jXpPFQw0GAbJ--6" vertex="1">
          <mxGeometry y="52" width="180" height="26" as="geometry" />
        </mxCell>
        <mxCell id="zkfFHV4jXpPFQw0GAbJ--10" value="trippedId: OrderStatus" style="text;align=left;verticalAlign=top;spacingLeft=4;spacingRight=4;overflow=hidden;rotatable=0;points=[[0,0.5],[1,0.5]];portConstraint=eastwest;fontStyle=0" parent="zkfFHV4jXpPFQw0GAbJ--6" vertex="1">
          <mxGeometry y="78" width="180" height="26" as="geometry" />
        </mxCell>
        <mxCell id="zkfFHV4jXpPFQw0GAbJ--11" value="version" style="text;align=left;verticalAlign=top;spacingLeft=4;spacingRight=4;overflow=hidden;rotatable=0;points=[[0,0.5],[1,0.5]];portConstraint=eastwest;" parent="zkfFHV4jXpPFQw0GAbJ--6" vertex="1">
          <mxGeometry y="104" width="180" height="26" as="geometry" />
        </mxCell>
        <mxCell id="zkfFHV4jXpPFQw0GAbJ--9" value="" style="line;html=1;strokeWidth=1;align=left;verticalAlign=middle;spacingTop=-1;spacingLeft=3;spacingRight=3;rotatable=0;labelPosition=right;points=[];portConstraint=eastwest;" parent="zkfFHV4jXpPFQw0GAbJ--6" vertex="1">
          <mxGeometry y="130" width="180" height="8" as="geometry" />
        </mxCell>
        <mxCell id="zkfFHV4jXpPFQw0GAbJ--13" value="OrderStatus" style="swimlane;fontStyle=0;align=center;verticalAlign=top;childLayout=stackLayout;horizontal=1;startSize=26;horizontalStack=0;resizeParent=1;resizeLast=0;collapsible=1;marginBottom=0;rounded=0;shadow=0;strokeWidth=1;" parent="WIyWlLk6GJQsqaUBKTNV-1" vertex="1">
          <mxGeometry x="800" y="151" width="210" height="160" as="geometry">
            <mxRectangle x="340" y="380" width="170" height="26" as="alternateBounds" />
          </mxGeometry>
        </mxCell>
        <mxCell id="zkfFHV4jXpPFQw0GAbJ--14" value="Created" style="text;align=left;verticalAlign=top;spacingLeft=4;spacingRight=4;overflow=hidden;rotatable=0;points=[[0,0.5],[1,0.5]];portConstraint=eastwest;" parent="zkfFHV4jXpPFQw0GAbJ--13" vertex="1">
          <mxGeometry y="26" width="210" height="26" as="geometry" />
        </mxCell>
        <mxCell id="blGtzpS0gQWkCMQCP_0I-9" value="Canceld" style="text;align=left;verticalAlign=top;spacingLeft=4;spacingRight=4;overflow=hidden;rotatable=0;points=[[0,0.5],[1,0.5]];portConstraint=eastwest;" parent="zkfFHV4jXpPFQw0GAbJ--13" vertex="1">
          <mxGeometry y="52" width="210" height="26" as="geometry" />
        </mxCell>
        <mxCell id="blGtzpS0gQWkCMQCP_0I-10" value="Complete" style="text;align=left;verticalAlign=top;spacingLeft=4;spacingRight=4;overflow=hidden;rotatable=0;points=[[0,0.5],[1,0.5]];portConstraint=eastwest;" parent="zkfFHV4jXpPFQw0GAbJ--13" vertex="1">
          <mxGeometry y="78" width="210" height="26" as="geometry" />
        </mxCell>
        <mxCell id="blGtzpS0gQWkCMQCP_0I-11" value="AwatingPayment" style="text;align=left;verticalAlign=top;spacingLeft=4;spacingRight=4;overflow=hidden;rotatable=0;points=[[0,0.5],[1,0.5]];portConstraint=eastwest;" parent="zkfFHV4jXpPFQw0GAbJ--13" vertex="1">
          <mxGeometry y="104" width="210" height="26" as="geometry" />
        </mxCell>
        <mxCell id="zkfFHV4jXpPFQw0GAbJ--15" value="" style="line;html=1;strokeWidth=1;align=left;verticalAlign=middle;spacingTop=-1;spacingLeft=3;spacingRight=3;rotatable=0;labelPosition=right;points=[];portConstraint=eastwest;" parent="zkfFHV4jXpPFQw0GAbJ--13" vertex="1">
          <mxGeometry y="130" width="210" height="8" as="geometry" />
        </mxCell>
        <mxCell id="zkfFHV4jXpPFQw0GAbJ--17" value="Order" style="swimlane;fontStyle=0;align=center;verticalAlign=top;childLayout=stackLayout;horizontal=1;startSize=26;horizontalStack=0;resizeParent=1;resizeLast=0;collapsible=1;marginBottom=0;rounded=0;shadow=0;strokeWidth=1;" parent="WIyWlLk6GJQsqaUBKTNV-1" vertex="1">
          <mxGeometry x="508" y="119" width="180" height="211" as="geometry">
            <mxRectangle x="550" y="140" width="160" height="26" as="alternateBounds" />
          </mxGeometry>
        </mxCell>
        <mxCell id="zkfFHV4jXpPFQw0GAbJ--18" value="id" style="text;align=left;verticalAlign=top;spacingLeft=4;spacingRight=4;overflow=hidden;rotatable=0;points=[[0,0.5],[1,0.5]];portConstraint=eastwest;" parent="zkfFHV4jXpPFQw0GAbJ--17" vertex="1">
          <mxGeometry y="26" width="180" height="26" as="geometry" />
        </mxCell>
        <mxCell id="zkfFHV4jXpPFQw0GAbJ--20" value="title" style="text;align=left;verticalAlign=top;spacingLeft=4;spacingRight=4;overflow=hidden;rotatable=0;points=[[0,0.5],[1,0.5]];portConstraint=eastwest;rounded=0;shadow=0;html=0;" parent="zkfFHV4jXpPFQw0GAbJ--17" vertex="1">
          <mxGeometry y="52" width="180" height="26" as="geometry" />
        </mxCell>
        <mxCell id="zkfFHV4jXpPFQw0GAbJ--19" value="status" style="text;align=left;verticalAlign=top;spacingLeft=4;spacingRight=4;overflow=hidden;rotatable=0;points=[[0,0.5],[1,0.5]];portConstraint=eastwest;rounded=0;shadow=0;html=0;" parent="zkfFHV4jXpPFQw0GAbJ--17" vertex="1">
          <mxGeometry y="78" width="180" height="26" as="geometry" />
        </mxCell>
        <mxCell id="zkfFHV4jXpPFQw0GAbJ--21" value="version" style="text;align=left;verticalAlign=top;spacingLeft=4;spacingRight=4;overflow=hidden;rotatable=0;points=[[0,0.5],[1,0.5]];portConstraint=eastwest;rounded=0;shadow=0;html=0;" parent="zkfFHV4jXpPFQw0GAbJ--17" vertex="1">
          <mxGeometry y="104" width="180" height="26" as="geometry" />
        </mxCell>
        <mxCell id="zkfFHV4jXpPFQw0GAbJ--22" value="ticketId" style="text;align=left;verticalAlign=top;spacingLeft=4;spacingRight=4;overflow=hidden;rotatable=0;points=[[0,0.5],[1,0.5]];portConstraint=eastwest;rounded=0;shadow=0;html=0;" parent="zkfFHV4jXpPFQw0GAbJ--17" vertex="1">
          <mxGeometry y="130" width="180" height="26" as="geometry" />
        </mxCell>
        <mxCell id="zkfFHV4jXpPFQw0GAbJ--25" value="userId" style="text;align=left;verticalAlign=top;spacingLeft=4;spacingRight=4;overflow=hidden;rotatable=0;points=[[0,0.5],[1,0.5]];portConstraint=eastwest;" parent="zkfFHV4jXpPFQw0GAbJ--17" vertex="1">
          <mxGeometry y="156" width="180" height="26" as="geometry" />
        </mxCell>
        <mxCell id="zkfFHV4jXpPFQw0GAbJ--23" value="" style="line;html=1;strokeWidth=1;align=left;verticalAlign=middle;spacingTop=-1;spacingLeft=3;spacingRight=3;rotatable=0;labelPosition=right;points=[];portConstraint=eastwest;" parent="zkfFHV4jXpPFQw0GAbJ--17" vertex="1">
          <mxGeometry y="182" width="180" height="8" as="geometry" />
        </mxCell>
        <mxCell id="zkfFHV4jXpPFQw0GAbJ--26" value="" style="endArrow=open;shadow=0;strokeWidth=1;rounded=0;endFill=1;edgeStyle=elbowEdgeStyle;elbow=vertical;" parent="WIyWlLk6GJQsqaUBKTNV-1" edge="1">
          <mxGeometry x="0.5" y="41" relative="1" as="geometry">
            <mxPoint x="254" y="253" as="sourcePoint" />
            <mxPoint x="508" y="253" as="targetPoint" />
            <mxPoint x="-40" y="32" as="offset" />
          </mxGeometry>
        </mxCell>
        <mxCell id="zkfFHV4jXpPFQw0GAbJ--27" value="1" style="resizable=0;align=left;verticalAlign=bottom;labelBackgroundColor=none;fontSize=12;" parent="zkfFHV4jXpPFQw0GAbJ--26" connectable="0" vertex="1">
          <mxGeometry x="-1" relative="1" as="geometry">
            <mxPoint y="4" as="offset" />
          </mxGeometry>
        </mxCell>
        <mxCell id="zkfFHV4jXpPFQw0GAbJ--28" value="1" style="resizable=0;align=right;verticalAlign=bottom;labelBackgroundColor=none;fontSize=12;" parent="zkfFHV4jXpPFQw0GAbJ--26" connectable="0" vertex="1">
          <mxGeometry x="1" relative="1" as="geometry">
            <mxPoint x="-7" y="4" as="offset" />
          </mxGeometry>
        </mxCell>
        <mxCell id="blGtzpS0gQWkCMQCP_0I-0" value="Ticket" style="swimlane;fontStyle=0;align=center;verticalAlign=top;childLayout=stackLayout;horizontal=1;startSize=26;horizontalStack=0;resizeParent=1;resizeLast=0;collapsible=1;marginBottom=0;rounded=0;shadow=0;strokeWidth=1;" parent="WIyWlLk6GJQsqaUBKTNV-1" vertex="1">
          <mxGeometry x="280" y="20" width="160" height="210" as="geometry">
            <mxRectangle x="340" y="380" width="170" height="26" as="alternateBounds" />
          </mxGeometry>
        </mxCell>
        <mxCell id="blGtzpS0gQWkCMQCP_0I-1" value="Salary" style="text;align=left;verticalAlign=top;spacingLeft=4;spacingRight=4;overflow=hidden;rotatable=0;points=[[0,0.5],[1,0.5]];portConstraint=eastwest;" parent="blGtzpS0gQWkCMQCP_0I-0" vertex="1">
          <mxGeometry y="26" width="160" height="26" as="geometry" />
        </mxCell>
        <mxCell id="blGtzpS0gQWkCMQCP_0I-8" value="title" style="text;align=left;verticalAlign=top;spacingLeft=4;spacingRight=4;overflow=hidden;rotatable=0;points=[[0,0.5],[1,0.5]];portConstraint=eastwest;" parent="blGtzpS0gQWkCMQCP_0I-0" vertex="1">
          <mxGeometry y="52" width="160" height="26" as="geometry" />
        </mxCell>
        <mxCell id="blGtzpS0gQWkCMQCP_0I-27" value="price" style="text;align=left;verticalAlign=top;spacingLeft=4;spacingRight=4;overflow=hidden;rotatable=0;points=[[0,0.5],[1,0.5]];portConstraint=eastwest;" parent="blGtzpS0gQWkCMQCP_0I-0" vertex="1">
          <mxGeometry y="78" width="160" height="26" as="geometry" />
        </mxCell>
        <mxCell id="blGtzpS0gQWkCMQCP_0I-31" value="userId" style="text;align=left;verticalAlign=top;spacingLeft=4;spacingRight=4;overflow=hidden;rotatable=0;points=[[0,0.5],[1,0.5]];portConstraint=eastwest;" parent="blGtzpS0gQWkCMQCP_0I-0" vertex="1">
          <mxGeometry y="104" width="160" height="26" as="geometry" />
        </mxCell>
        <mxCell id="blGtzpS0gQWkCMQCP_0I-29" value="version" style="text;align=left;verticalAlign=top;spacingLeft=4;spacingRight=4;overflow=hidden;rotatable=0;points=[[0,0.5],[1,0.5]];portConstraint=eastwest;" parent="blGtzpS0gQWkCMQCP_0I-0" vertex="1">
          <mxGeometry y="130" width="160" height="26" as="geometry" />
        </mxCell>
        <mxCell id="blGtzpS0gQWkCMQCP_0I-30" value="orderId?" style="text;align=left;verticalAlign=top;spacingLeft=4;spacingRight=4;overflow=hidden;rotatable=0;points=[[0,0.5],[1,0.5]];portConstraint=eastwest;" parent="blGtzpS0gQWkCMQCP_0I-0" vertex="1">
          <mxGeometry y="156" width="160" height="26" as="geometry" />
        </mxCell>
        <mxCell id="blGtzpS0gQWkCMQCP_0I-2" value="" style="line;html=1;strokeWidth=1;align=left;verticalAlign=middle;spacingTop=-1;spacingLeft=3;spacingRight=3;rotatable=0;labelPosition=right;points=[];portConstraint=eastwest;" parent="blGtzpS0gQWkCMQCP_0I-0" vertex="1">
          <mxGeometry y="182" width="160" height="8" as="geometry" />
        </mxCell>
        <mxCell id="blGtzpS0gQWkCMQCP_0I-3" value="" style="endArrow=open;shadow=0;strokeWidth=1;rounded=0;endFill=1;edgeStyle=elbowEdgeStyle;elbow=vertical;exitX=0.5;exitY=0;exitDx=0;exitDy=0;" parent="WIyWlLk6GJQsqaUBKTNV-1" source="zkfFHV4jXpPFQw0GAbJ--0" edge="1">
          <mxGeometry x="0.5" y="41" relative="1" as="geometry">
            <mxPoint x="110" y="80" as="sourcePoint" />
            <mxPoint x="280" y="60" as="targetPoint" />
            <mxPoint x="-40" y="32" as="offset" />
            <Array as="points">
              <mxPoint x="310" y="60" />
              <mxPoint x="260" y="50" />
              <mxPoint x="310" y="80" />
            </Array>
          </mxGeometry>
        </mxCell>
        <mxCell id="blGtzpS0gQWkCMQCP_0I-4" value="1" style="resizable=0;align=left;verticalAlign=bottom;labelBackgroundColor=none;fontSize=12;" parent="blGtzpS0gQWkCMQCP_0I-3" connectable="0" vertex="1">
          <mxGeometry x="-1" relative="1" as="geometry">
            <mxPoint y="4" as="offset" />
          </mxGeometry>
        </mxCell>
        <mxCell id="blGtzpS0gQWkCMQCP_0I-5" value="1" style="resizable=0;align=right;verticalAlign=bottom;labelBackgroundColor=none;fontSize=12;" parent="blGtzpS0gQWkCMQCP_0I-3" connectable="0" vertex="1">
          <mxGeometry x="1" relative="1" as="geometry">
            <mxPoint x="-7" y="4" as="offset" />
          </mxGeometry>
        </mxCell>
        <mxCell id="blGtzpS0gQWkCMQCP_0I-7" style="edgeStyle=orthogonalEdgeStyle;rounded=0;orthogonalLoop=1;jettySize=auto;html=1;exitX=1;exitY=0.5;exitDx=0;exitDy=0;entryX=0.5;entryY=0;entryDx=0;entryDy=0;" parent="WIyWlLk6GJQsqaUBKTNV-1" source="blGtzpS0gQWkCMQCP_0I-1" target="zkfFHV4jXpPFQw0GAbJ--17" edge="1">
          <mxGeometry relative="1" as="geometry" />
        </mxCell>
        <mxCell id="blGtzpS0gQWkCMQCP_0I-20" value="1" style="text;html=1;align=center;verticalAlign=middle;resizable=0;points=[];autosize=1;strokeColor=none;fillColor=none;" parent="WIyWlLk6GJQsqaUBKTNV-1" vertex="1">
          <mxGeometry x="435" y="35" width="30" height="30" as="geometry" />
        </mxCell>
        <mxCell id="blGtzpS0gQWkCMQCP_0I-22" value="1" style="text;html=1;align=center;verticalAlign=middle;resizable=0;points=[];autosize=1;strokeColor=none;fillColor=none;" parent="WIyWlLk6GJQsqaUBKTNV-1" vertex="1">
          <mxGeometry x="595" y="95" width="30" height="30" as="geometry" />
        </mxCell>
        <mxCell id="blGtzpS0gQWkCMQCP_0I-23" style="edgeStyle=orthogonalEdgeStyle;rounded=0;orthogonalLoop=1;jettySize=auto;html=1;entryX=-0.015;entryY=0.269;entryDx=0;entryDy=0;entryPerimeter=0;dashed=1;" parent="WIyWlLk6GJQsqaUBKTNV-1" source="zkfFHV4jXpPFQw0GAbJ--21" target="blGtzpS0gQWkCMQCP_0I-10" edge="1">
          <mxGeometry relative="1" as="geometry" />
        </mxCell>
        <mxCell id="blGtzpS0gQWkCMQCP_0I-32" value="" style="group" parent="WIyWlLk6GJQsqaUBKTNV-1" vertex="1" connectable="0">
          <mxGeometry x="520" y="311" width="90" height="139" as="geometry" />
        </mxCell>
        <mxCell id="blGtzpS0gQWkCMQCP_0I-13" style="edgeStyle=orthogonalEdgeStyle;rounded=0;orthogonalLoop=1;jettySize=auto;html=1;" parent="blGtzpS0gQWkCMQCP_0I-32" edge="1">
          <mxGeometry relative="1" as="geometry">
            <mxPoint x="90" y="15.444444444444443" as="targetPoint" />
            <mxPoint y="133.85185185185185" as="sourcePoint" />
          </mxGeometry>
        </mxCell>
        <mxCell id="blGtzpS0gQWkCMQCP_0I-24" value="1" style="text;html=1;align=center;verticalAlign=middle;resizable=0;points=[];autosize=1;strokeColor=none;fillColor=none;" parent="blGtzpS0gQWkCMQCP_0I-32" vertex="1">
          <mxGeometry y="100.38888888888889" width="30" height="30" as="geometry" />
        </mxCell>
        <mxCell id="blGtzpS0gQWkCMQCP_0I-25" value="1" style="text;html=1;align=center;verticalAlign=middle;resizable=0;points=[];autosize=1;strokeColor=none;fillColor=none;" parent="blGtzpS0gQWkCMQCP_0I-32" vertex="1">
          <mxGeometry x="60" y="9" width="30" height="30" as="geometry" />
        </mxCell>
      </root>
    </mxGraphModel>
  </diagram>
  <diagram id="nMRaYCffOVyZP0l3Yfxk" name="Events">
    <mxGraphModel dx="1050" dy="574" grid="1" gridSize="10" guides="1" tooltips="1" connect="1" arrows="1" fold="1" page="1" pageScale="1" pageWidth="850" pageHeight="1100" math="0" shadow="0">
      <root>
        <mxCell id="0" />
        <mxCell id="1" parent="0" />
      </root>
    </mxGraphModel>
  </diagram>
</mxfile>
